<?xml version="1.0" encoding="UTF-8"?>
<svg id="Layer_2" data-name="Layer 2" xmlns="http://www.w3.org/2000/svg" viewBox="0 0 265.96 311.43">
  <defs>
    <style>
      .cls-1 {
        fill: #231f20;
        stroke-width: 0px;
      }
    </style>
  </defs>
  <g id="Layer_1-2" data-name="Layer 1">
    <g id="Black">
      <path class="cls-1" d="M33.23,99.76c0,55,44.74,99.75,99.73,99.75,28.14,0,53.57-11.69,71.7-30.47h0c3.77-3.89,7.22-8.09,10.33-12.55,1.43-2.11,2.82-4.28,4.14-6.5,8.65-14.76,13.59-31.93,13.59-50.23,0-5.54-.44-10.96-1.32-16.25-3.11-18.87-11.54-35.98-23.67-49.73t-.04,0C189.42,13.07,162.71,0,132.96,0,77.97,0,33.23,44.75,33.23,99.76M134.5,19.54c-.11-.08-.22-.14-.33-.18V2.4c22.17.27,42.57,7.98,58.84,20.75-.37.03-.77.04-1.17.04-4.29,0-6.85-1.34-9.38-3.37l-.15-.12c-.04-.06-.07-.11-.15-.16-2.93-2.54-6.3-5.41-12.71-5.41s-9.75,2.87-12.71,5.41c-2.89,2.48-5.61,4.82-11.14,4.82s-8.21-2.34-11.1-4.82M35.61,99.76C35.61,46.47,78.63,3.05,131.79,2.41v105.27c-25.24-13.02-50.27-12.28-66.98-9.32-14.22,2.52-24.69,6.92-28.91,8.9-.18-2.47-.29-4.97-.29-7.49M158.32,21.4c2.89-2.48,5.64-4.82,11.14-4.82,4.29,0,6.85,1.35,9.38,3.37l.15.12c.04.06.07.11.15.16,2.93,2.54,6.3,5.41,12.71,5.41,1.39,0,2.64-.14,3.77-.37,3,2.54,5.86,5.26,8.54,8.15-.4.34-.81.68-1.17,1.01-2.89,2.48-5.64,4.82-11.14,4.82-4.29,0-6.85-1.35-9.38-3.37l-.15-.12c-.04-.06-.07-.11-.15-.16-2.93-2.54-6.3-5.41-12.71-5.41s-9.75,2.87-12.71,5.41c-2.89,2.48-5.61,4.82-11.14,4.82s-8.21-2.34-11.1-4.82c-.11-.08-.22-.14-.33-.18v-12.93c2.67,2.21,5.93,4.33,11.43,4.33,6.41,0,9.78-2.87,12.71-5.41M158.32,37.44c2.89-2.48,5.64-4.82,11.14-4.82,4.29,0,6.85,1.34,9.38,3.37l.15.12c.04.06.07.11.15.16,2.93,2.54,6.3,5.41,12.71,5.41s9.78-2.87,12.71-5.41c.44-.36.84-.71,1.25-1.05,2.82,3.14,5.39,6.46,7.77,9.95-5.06.55-7.99,3.05-10.59,5.29-2.89,2.48-5.64,4.82-11.14,4.82-4.29,0-6.85-1.35-9.38-3.37l-.15-.12c-.04-.06-.07-.11-.15-.16-2.93-2.54-6.3-5.41-12.71-5.41s-9.75,2.87-12.71,5.41c-2.89,2.48-5.61,4.82-11.14,4.82s-8.21-2.34-11.1-4.81c-.11-.08-.22-.14-.33-.19v-12.93c2.67,2.21,5.93,4.33,11.43,4.33,6.41,0,9.78-2.87,12.71-5.41M204.55,52.33c2.78-2.39,5.42-4.65,10.55-4.81,3.59,5.61,6.6,11.61,8.98,17.93h-89.91v-10.87c2.67,2.21,5.93,4.33,11.43,4.33,6.41,0,9.78-2.87,12.71-5.41,2.89-2.48,5.64-4.82,11.14-4.82,4.29,0,6.85,1.35,9.38,3.37l.15.12c.04.05.07.11.15.16,2.93,2.53,6.3,5.41,12.71,5.41s9.78-2.88,12.71-5.41M134.17,155.49v-87.65h90.79c1.58,4.54,2.82,9.23,3.74,14.04-4.1-2.32-8.83-4.24-14.25-5.36-1.36-.4-13.26-3.74-28.03.09-7.8,1.95-14.65,6.23-19.82,12.39-1.21,1.46-2.31,3.04-3.26,4.7-.88,1.6-.77,3.59.33,5.08h0c1.03,1.49,2.86,2.22,4.65,1.87.55-.1,1.1-.15,1.65-.15,1.32,0,2.64.28,3.85.84.15.06,12.86,5.25,17.99,22.23,1.36,4.45,1.43,9.17.18,13.65-1.72,5.85-5.42,10.31-10.99,13.28-.62.33-.84,1.1-.51,1.71.15.3.4.52.73.62.33.1.7.07.99-.1,6.12-3.25,10.33-8.37,12.2-14.81,1.39-4.95,1.32-10.17-.18-15.09-4.43-14.7-14-21.06-17.92-23.12l-.4-.21.26-.37c.22-.32.48-.62.77-.88,1.5-1.33,3.63-1.74,5.53-1.11,1.28.43,2.49,1.02,3.63,1.74,1.25.77,2.67,1.19,4.14,1.22h.15s.11.09.11.09c1.61,1.34,9.82,8.79,11.43,23.84.07.6.15,1.22.18,1.83.04.67.59,1.19,1.25,1.19h.07c.73-.05,1.25-.65,1.21-1.35-.04-.64-.11-1.29-.18-1.94-1.39-12.96-7.22-20.53-10.55-23.89l-.4-.38.48-.25c1.06-.53,1.98-1.3,2.67-2.24l.26-.33,1.91,1.57c1.36,1.11,2.97,1.78,4.73,1.93h.15s.11.14.11.14c1.25,1.49,4.4,5.87,6.52,14.2.11.33.29.6.59.77.29.17.66.22.95.14.7-.17,1.1-.86.92-1.54-1.57-6.19-3.74-10.33-5.24-12.72l-.55-.88.99.29c.99.28,1.91.72,2.71,1.32,2.27,1.69,4.18,3.76,5.68,6.15,2.02,3.15,3.3,8.35,4.07,12.17l.07.52-.51-.04c-2.05-.16-4.1-.09-6.16.19-1.76.22-3.26,1.3-4.03,2.89-.88,1.81-.99,4.54,3.33,7.29l.26.15-.07.27c-.37,1.5-.26,3.05.33,4.48.7,1.62,1.98,2.92,3.85,3.87l.29.15-.07.33c-.48,1.35-.55,2.8-.29,4.19.11.68.81,1.15,1.47,1.03h0c-1.61,3.05-3.41,6.01-5.35,8.86-2.64,1.96-5.35,3.81-8.17,5.48l-2.75,1.63,2.27-2.25c2.02-2.03,3.77-4.33,5.17-6.84,1.61-2.8,2.82-5.8,3.66-8.91.18-.67-.22-1.37-.92-1.55-.33-.09-.66-.04-.95.12-.29.17-.51.44-.59.77-.77,2.9-1.91,5.7-3.41,8.3-2.64,4.61-5.94,7.97-9.78,9.98l-.15.06-.11-.03c-2.67-.5-5.31-1.16-7.91-1.96l-.88-.28.81-.45c4.58-2.46,8.28-6.64,11.03-12.42.37-.8.73-1.64,1.06-2.49.26-.68-.07-1.41-.7-1.66-.33-.12-.66-.11-.99.03-.29.14-.55.39-.66.7-.33.81-.66,1.59-1.03,2.33-3.19,6.68-7.55,10.93-13.04,12.61l-.15.04-.15-.04c-6.92-2.66-13.23-6.59-18.65-11.68-2.2-2.13-5.53-2.58-8.21-1.11-4.62,2.51-13.3,7.08-19.42,9.53l-.07.03c-1.06.5-3,1.19-4.32,1.19-.11,0-.26,0-.37-.02M165.72,97.29c-.51-.67-.59-1.6-.15-2.35.84-1.53,1.87-2.98,3-4.33,4.8-5.75,11.21-9.75,18.5-11.56,14.62-3.79,26.56-.14,26.67-.1.04.01.07.03.11.03,5.93,1.22,11.03,3.45,15.39,6.17.73,4.77,1.1,9.64,1.1,14.61,0,7.83-.95,15.45-2.71,22.76-1.36-.56-2.78-1.02-4.21-1.34l-.26-.06-.07-.26c-.77-4.4-2.2-10.43-4.62-14.19-1.65-2.66-3.77-4.95-6.3-6.82-1.94-1.43-4.25-2.18-6.67-2.18h-1.25c-1.39,0-2.78-.49-3.85-1.39l-3.08-2.55c-.11-.09-.26-.17-.37-.21-.33-.12-.7-.1-.99.04-.29.14-.55.4-.66.71-.15.37-.33.7-.55,1-1.69,2.39-4.91,3.03-7.33,1.45-1.32-.84-2.75-1.51-4.25-1.99-2.75-.91-5.83-.27-7.99,1.67-.59.54-1.1,1.17-1.47,1.87l-.18.28-.29-.09c-1.76-.53-3.63-.64-5.42-.3-.15.03-.29.04-.4.04-.7,0-1.32-.33-1.72-.91M36.13,109.79c7.62-3.63,51.88-22.73,95.66.57h0s0,84.88,0,84.88c-.15-.17-.29-.32-.48-.42-4.62-2.55-9.05-5.58-13.19-9.02l-.44-.36.48-.29c3.92-2.34,7.14-5.89,9.38-10.25,2.67-5.25,3.55-11.03,2.42-16.29-.07-.42-.37-.77-.73-.96-.4-.19-.84-.21-1.21-.03-4.95,2.17-9.12,6.25-11.8,11.49-1.87,3.63-2.86,7.58-2.89,11.42v.95l-.66-.67c-3.08-3.05-5.94-6.35-8.46-9.81l-.29-.4.44-.2c4.29-1.95,7.99-5.25,10.7-9.54,3.15-4.98,4.54-10.66,3.88-15.99-.04-.43-.29-.8-.62-1.03-.37-.23-.81-.28-1.25-.15-5.09,1.7-9.64,5.38-12.79,10.36-1.98,3.13-3.3,6.62-3.81,10.1l-.15,1.11-.59-.96c-2.75-4.62-5.06-9.53-6.89-14.61l-.15-.41.44-.11c4.54-1.15,8.72-3.72,12.16-7.42,3.99-4.33,6.38-9.66,6.74-15.02,0-.43-.15-.84-.48-1.13-.29-.29-.73-.43-1.14-.37-5.35.75-10.48,3.55-14.47,7.87-2.16,2.33-3.85,4.92-5.02,7.73l-.44,1.13-.29-1.19c-.48-2.04-.92-4.14-1.25-6.23v-.18l.11-.14c3.22-3.92,5.17-9.13,5.42-14.67.29-5.89-1.32-11.51-4.51-15.83-.26-.34-.66-.56-1.06-.58-.48-.03-.84.15-1.14.47-3.59,4-5.72,9.45-6.01,15.33-.26,5.7,1.25,11.19,4.25,15.47l.07.08v.1c.18,1.19.4,2.41.62,3.62l.26,1.29-.92-.93c-1.36-1.35-2.86-2.57-4.51-3.62-4.95-3.19-10.63-4.61-15.94-4.01-.44.05-.81.29-1.06.64-.22.36-.29.8-.15,1.21,1.69,5.11,5.31,9.68,10.3,12.86,3.85,2.49,8.17,3.92,12.46,4.12.77.04,1.58.03,2.38-.02l.29-.02.11.29c1.14,3.18,2.42,6.32,3.92,9.36l.55,1.14-1.1-.62c-.95-.53-1.98-1.02-3-1.44-5.46-2.23-11.28-2.6-16.41-1.04-.4.12-.73.42-.92.82-.15.4-.11.84.07,1.22,2.56,4.72,7,8.55,12.42,10.78,2.86,1.16,5.79,1.82,8.76,1.97,2.23.11,4.43-.1,6.56-.62l.26-.06.18.22c1.43,2.04,3,4.04,4.65,5.94l.81.96-1.21-.32c-1.47-.37-2.97-.63-4.47-.75-5.86-.51-11.54.88-15.97,3.91-.37.24-.59.62-.62,1.05-.04.42.11.84.44,1.14.77.75,1.61,1.42,2.49,2.05-27.96-14.89-47.81-43.01-51.22-75.94M87.24,131.02c-1.9-3.48-2.82-7.6-2.6-11.91.18-4.31,1.5-8.33,3.74-11.61l.37-.54.29.57c1.94,3.48,2.82,7.6,2.64,11.92-.22,4.32-1.5,8.33-3.74,11.61l-.37.54-.33-.57ZM220.56,140.14c.29-.36.37-.78.26-1.17-.11-.39-.44-.7-.81-.84-2.12-.73-3.48-1.79-4.03-3.17-.48-1.25-.44-2.59.07-3.79.29-.63.04-1.35-.55-1.67-3.74-2-3.92-3.64-3.44-4.66.44-.82,1.21-1.36,2.12-1.47,5.13-.71,9.42.13,12.82,1.61-1.76,6.54-4.18,12.8-7.18,18.72-.18-1.23.07-2.49.73-3.56M92.37,145.87c.77-3.9,2.75-7.64,5.68-10.8,2.93-3.17,6.52-5.41,10.33-6.48l.62-.17-.11.63c-.77,3.9-2.75,7.64-5.68,10.81-2.93,3.17-6.52,5.41-10.33,6.48l-.62.18.11-.64ZM87.86,146.96c-3.99-.08-7.99-1.35-11.65-3.69-3.63-2.34-6.45-5.47-8.17-9.05l-.29-.58h.66c3.96.08,7.99,1.36,11.61,3.7,3.66,2.33,6.49,5.46,8.21,9.05l.26.58h-.62ZM139.89,156.63c6.3-2.52,15.02-7.13,19.67-9.65,1.72-.94,3.85-.65,5.28.72,10.52,10.06,23.38,14.2,32.32,15.91l1.14.22-1.03.53c-5.2,2.64-10.63,5-16.08,7.02l-.4.15-.15-.41c-.73-2.56-2.42-4.7-4.73-6.04-2.56-1.48-5.64-1.85-8.46-1.03l-12.2,3.58,1.61-1.27c1.54-1.23,3.11-2.44,4.51-3.51.29-.23.59-.49.81-.79,1.69-2.07,1.39-5.13-.7-6.81l-.07-.05c-1.5-1.22-3.66-1.39-5.35-.41-5.83,3.41-16.74,6.64-21.87,8.05v-4.77c.11,0,.22.01.37.01,2.31,0,5.02-1.25,5.35-1.41M103.06,167.25c.07-3.98,1.32-8.01,3.63-11.66,2.31-3.65,5.42-6.5,8.98-8.25l.59-.28v.64c-.07,3.98-1.32,8.01-3.63,11.66-2.31,3.65-5.42,6.5-8.98,8.25l-.59.28v-.65ZM134.17,165.44c6.05-1.64,17.04-4.9,23.15-8.49.77-.45,1.76-.38,2.46.18l.07.06c.59.45.88,1.12.88,1.84-.04.71-.37,1.36-.92,1.79-3.52,2.7-8.28,6.4-10.81,8.76-.37.33-.48.82-.37,1.28.22.67.92,1.06,1.58.86l17.95-5.26c.73-.22,1.5-.32,2.27-.32,1.47,0,2.89.38,4.14,1.11,1.83,1.06,3.15,2.74,3.66,4.77l.11.36-.37.12c-11.76,4.11-24.73,7.18-38.51,9.15-.62.09-1.06.63-1.06,1.26,0,.34.11.66.37.89.22.24.55.37.88.37.04.01.11,0,.18-.01,14.36-2.05,27.88-5.3,40.12-9.67l.15-.02s.18-.06.29-.13c7.69-2.74,15.17-6.1,22.28-10.01.18-.07.29-.14.4-.22,2.13-1.19,4.03-2.34,5.79-3.46-3.37,4.21-7.11,8.13-11.14,11.72-10.81,4.78-21.73,7.71-28.83,9.29-.33.08-.59.27-.77.56-.18.29-.26.63-.18.96.07.33.29.62.55.8.29.18.62.24.95.17,5.53-1.23,13.37-3.28,21.69-6.37-15.94,11.92-35.65,19.06-56.97,19.32v-31.65ZM86.58,167.62c-3.99-1.63-7.36-4.2-9.67-7.41l-.4-.52.62-.11c3.92-.65,8.13-.12,12.13,1.52,3.99,1.64,7.36,4.2,9.67,7.41l.4.53-.66.1c-1.06.18-2.2.27-3.3.27-2.93,0-5.9-.6-8.79-1.79M116.22,182.35c-.29-3.96.55-8.09,2.53-11.94,1.98-3.85,4.8-6.98,8.21-9.04l.55-.34.04.65c.33,3.96-.55,8.09-2.53,11.94-1.94,3.85-4.8,6.97-8.17,9.04l-.55.34-.07-.64ZM100.17,187.44c-4.29-.37-8.28-1.81-11.47-4.18l-.51-.38.59-.29c3.55-1.79,7.69-2.54,12.02-2.17,4.29.37,8.24,1.81,11.43,4.18l.55.38-.59.29c-2.97,1.49-6.34,2.26-9.89,2.26-.7,0-1.39-.03-2.12-.09M114.79,187.06l.26-.15.22.19c4.43,3.8,9.2,7.14,14.22,9.94-12.31-.44-24.03-3.17-34.81-7.78,1.69.49,3.44.84,5.28.99.33.03.7.05,1.03.07.44.02.88.03,1.32.03,4.54,0,8.87-1.13,12.49-3.3M131.61,197.1c.07-.07.11-.15.18-.23v.23c-.07,0-.15,0-.18,0"/>
      <path class="cls-1" d="M92.07,26.56c-.51.14-1.03.31-1.54.52-1.1.44-2.12,1.05-3.15,1.81-1.28.97-2.42,2.18-3.33,3.57-1.14,1.7-1.94,3.7-2.34,5.77-.44,2.27-.4,4.83.15,7.19.48,2.28,1.43,4.6,2.75,6.72.7,1.1,1.36,2.01,1.98,2.77.18.2.59.68.73.87l.22.24c.15.15.22.26.33.39.11.12.18.22.29.34.95,1.15,1.65,1.99,2.2,2.73.59.8,1.14,1.59,1.61,2.39.51.83.88,1.55,1.14,2.25.29.79.48,1.66.59,2.59.07.82.07,1.75,0,2.83-.07.99-.26,1.91-.37,2.58-.11.47-.18.9-.26,1.27-.15.67.04,1.37.51,1.86.37.39.92.61,1.43.61.15,0,.29,0,.4-.04.51-.1.99-.23,1.47-.39,1.1-.36,2.2-.88,3.22-1.54,1.36-.85,2.56-1.94,3.59-3.24,1.28-1.56,2.27-3.44,2.86-5.42.7-2.19.92-4.63.66-7.05-.22-2.3-.88-4.7-1.91-6.94-.92-2.02-2.12-3.96-3.59-5.75-.4-.51-.84-.99-1.06-1.21l-.44-.5c-.15-.16-.26-.29-.37-.39l-.15-.14c-.15-.14-.26-.27-.37-.38l-.07-.1c-.07-.08-.18-.16-.29-.29-.04-.07-.15-.15-.22-.23l-.07-.1c-.7-.77-1.32-1.48-1.8-2.15-.59-.77-1.03-1.41-1.36-2.06-.37-.72-.66-1.53-.84-2.4-.18-.81-.26-1.75-.29-2.8-.04-.94.04-1.85.07-2.6.04-.51.11-.97.15-1.37.07-.66-.18-1.33-.66-1.77-.4-.33-.88-.5-1.36-.5-.18,0-.33.02-.51.07M95.37,72.51c.15-.74.33-1.71.4-2.8.11-1.22.11-2.27,0-3.22-.11-1.1-.37-2.14-.7-3.1-.33-.84-.73-1.67-1.32-2.61-.51-.86-1.1-1.7-1.72-2.56-.59-.76-1.28-1.63-2.27-2.83l-.07-.06c-.07-.08-.15-.16-.22-.26-.11-.13-.22-.26-.37-.43l-.22-.26c-.11-.14-.51-.59-.7-.79-.59-.71-1.17-1.54-1.79-2.54-1.21-1.92-2.05-4.01-2.49-6.06-.48-2.1-.51-4.35-.11-6.35.33-1.8,1.03-3.53,2.01-4.99.81-1.21,1.76-2.24,2.86-3.07.84-.65,1.76-1.17,2.67-1.54.4-.16.77-.3,1.17-.4-.04.4-.11.84-.15,1.34-.07.82-.11,1.8-.11,2.84.04,1.18.18,2.25.37,3.18.22,1.06.59,2.05,1.03,2.94.4.75.88,1.48,1.54,2.36.55.72,1.17,1.47,1.94,2.29.11.15.22.28.37.43.07.07.15.13.18.19.15.19.37.37.51.56l.15.15c.11.08.18.17.29.3l.51.55c.15.16.51.57.92,1.1,1.36,1.65,2.49,3.43,3.33,5.29.92,2.03,1.54,4.2,1.72,6.27h0c.22,2.14.04,4.29-.55,6.23-.55,1.73-1.39,3.36-2.49,4.71-.92,1.11-1.94,2.05-3.11,2.78-.88.57-1.8,1.02-2.75,1.32-.37.13-.77.23-1.1.33.07-.37.18-.79.26-1.26"/>
      <path class="cls-1" d="M76.17,52.66c-.4.2-.84.46-1.25.76-.62.48-1.17,1.08-1.65,1.76-.37.59-.88,1.56-1.14,2.84-.22,1.11-.18,2.36.07,3.51.22,1.1.7,2.23,1.32,3.26.22.33.4.64.62.91l-.04.03.81.91c.07.07.11.11.15.16.07.07.11.14.15.15.26.35.66.8.95,1.23.29.35.51.69.73,1.04.22.34.37.64.48.92.11.32.18.67.22,1.05.04.34.04.73,0,1.18-.04.28-.07.58-.11.91-.15.72.15,1.46.7,1.92.37.29.84.44,1.28.44.26,0,.51-.05.77-.15.4-.17.81-.37,1.17-.6.66-.42,1.25-.96,1.76-1.6.62-.77,1.14-1.69,1.43-2.66.29-1.06.44-2.28.33-3.44-.11-1.11-.44-2.27-.95-3.35-.44-.97-1.03-1.9-1.72-2.75-.15-.22-.4-.48-.48-.57l-.22-.23c-.07-.08-.11-.14-.18-.2l-.07-.06s-.07-.1-.15-.16l-.29-.34c-.29-.33-.55-.63-.77-.92-.22-.25-.4-.53-.59-.87-.15-.28-.26-.6-.33-.95-.07-.33-.11-.73-.11-1.18-.04-.37,0-.73,0-.97.07-.72-.26-1.41-.88-1.82-.33-.23-.73-.35-1.14-.35-.29,0-.59.06-.88.19M79.69,72.54c.04-.59.04-1.1,0-1.56-.07-.55-.18-1.07-.37-1.56-.15-.42-.37-.83-.62-1.29-.26-.41-.51-.8-.84-1.21-.22-.32-.51-.65-.73-.95h0s-.7-.82-.7-.82c-.07-.08-.26-.27-.33-.38-.26-.29-.51-.66-.77-1.08-.51-.82-.88-1.71-1.06-2.59-.22-.88-.22-1.83-.07-2.67.18-.94.55-1.64.84-2.06.33-.49.73-.92,1.17-1.26.26-.19.51-.35.77-.48-.04.28-.04.66-.04,1.06.04.57.07,1.1.18,1.55.11.54.29,1.04.51,1.49.26.48.51.85.77,1.17.26.34.55.69.88,1.06.07.07.15.14.22.22l.04.07c.11.1.18.19.29.28l.04.07s.07.07.15.12l.22.27c.07.08.26.28.4.46.59.71,1.06,1.48,1.43,2.29.4.87.66,1.8.77,2.68.07.89,0,1.82-.26,2.62-.22.71-.59,1.4-1.03,1.96-.37.46-.81.85-1.28,1.15-.22.15-.48.27-.7.38.04-.34.07-.66.11-.96"/>
      <path class="cls-1" d="M49.1,76.44c-2.97,2.16-4.65,5.51-4.69,9.17,0,3.78,1.87,7.32,4.98,9.46,1.94,1.32,4.18,2,6.45,2,1.39,0,2.78-.25,4.1-.77l25.46-8.8,26.6,9.09c1.14.36,2.27.53,3.41.53,2.42,0,4.76-.76,6.74-2.24,2.97-2.18,4.65-5.52,4.65-9.19s-1.87-7.31-4.98-9.44c-3.15-2.13-7.11-2.56-10.59-1.19l-25.43,8.89-26.56-9.19c-1.14-.36-2.31-.53-3.44-.53-2.38,0-4.73.75-6.71,2.21M50.74,93.1c-2.53-1.72-3.96-4.44-3.92-7.48,0-2.9,1.36-5.54,3.7-7.25,1.58-1.16,3.41-1.75,5.28-1.75.92,0,1.83.14,2.71.42l22.83,7.9-9.27,1.58c-4.76.81-9.71-.38-13.59-3.27-.55-.39-1.28-.28-1.69.25-.4.53-.29,1.28.26,1.67,3.48,2.6,7.73,3.99,12.05,3.99,1.14,0,2.23-.1,3.37-.28l3.3-.56-16.63,5.74c-1.1.43-2.23.64-3.33.64-1.76,0-3.52-.54-5.06-1.59M100.24,86.51l-9.75-1.66,21.58-7.55c2.82-1.12,5.86-.78,8.39.93,2.49,1.71,3.96,4.43,3.96,7.46s-1.36,5.55-3.7,7.27c-2.31,1.72-5.24,2.21-7.99,1.36l-18.98-6.48,6.08,1.03c1.1.19,2.24.28,3.33.28,4.32,0,8.57-1.39,12.05-3.99.55-.4.66-1.14.26-1.67-.4-.53-1.14-.64-1.69-.25-3.08,2.29-6.81,3.52-10.62,3.52-.99,0-1.98-.08-2.93-.25"/>
      <polygon class="cls-1" points="0 300.37 0 311.26 7.88 311.26 7.88 310.03 1.32 310.03 1.32 306.36 6.23 306.36 6.23 305.12 1.32 305.12 1.32 301.61 7.66 301.61 7.66 300.37 0 300.37"/>
      <polygon class="cls-1" points="16.63 300.37 13.85 304.63 11.06 300.37 9.49 300.37 12.97 305.72 9.16 311.26 10.7 311.26 13.63 306.76 16.6 311.26 18.14 311.26 14.51 305.65 18.03 300.37 16.63 300.37"/>
      <path class="cls-1" d="M20.44,300.37v10.89h1.32v-4.26h2.53c1.1,0,1.98-.3,2.67-.9.66-.6.99-1.41.99-2.42s-.33-1.82-.99-2.42c-.7-.6-1.58-.9-2.67-.9h-3.85ZM21.76,301.61h2.34c.84,0,1.47.17,1.87.52.4.35.59.87.59,1.56s-.18,1.21-.59,1.56c-.4.34-1.03.52-1.87.52h-2.34v-4.16Z"/>
      <polygon class="cls-1" points="30.52 300.37 30.52 311.26 38.4 311.26 38.4 310.03 31.84 310.03 31.84 306.36 36.75 306.36 36.75 305.12 31.84 305.12 31.84 301.61 38.14 301.61 38.14 300.37 30.52 300.37"/>
      <path class="cls-1" d="M41.04,300.37v10.89h1.32v-4.52h2.6l2.97,4.52h1.58l-3.08-4.67c.77-.19,1.36-.56,1.8-1.09.4-.53.62-1.17.62-1.95,0-.98-.33-1.76-.99-2.33-.7-.57-1.58-.86-2.67-.86h-4.14ZM42.35,301.61h2.78c1.54,0,2.31.65,2.31,1.95s-.77,1.95-2.31,1.95h-2.78v-3.89Z"/>
      <rect class="cls-1" x="51.99" y="300.37" width="1.32" height="10.89"/>
      <polygon class="cls-1" points="56.9 300.37 56.9 311.26 64.78 311.26 64.78 310.03 58.22 310.03 58.22 306.36 63.13 306.36 63.13 305.12 58.22 305.12 58.22 301.61 64.52 301.61 64.52 300.37 56.9 300.37"/>
      <polygon class="cls-1" points="74.71 300.37 74.71 308.06 74.78 309.81 74.74 309.81 73.57 307.63 69.03 300.37 67.42 300.37 67.42 311.26 68.66 311.26 68.66 303.57 68.59 301.83 68.62 301.83 69.76 303.97 74.34 311.26 75.95 311.26 75.95 300.37 74.71 300.37"/>
      <path class="cls-1" d="M81.23,300.89c-.73.45-1.32,1.11-1.76,1.95-.4.85-.59,1.84-.59,2.97s.18,2.14.59,2.98c.44.84,1.03,1.49,1.76,1.95.77.45,1.65.69,2.68.69s1.94-.26,2.71-.78c.81-.52,1.36-1.25,1.69-2.17l-1.32-.49c-.22.73-.62,1.27-1.17,1.65-.51.37-1.17.56-1.9.56-1.14,0-2.02-.39-2.68-1.16-.66-.78-.99-1.85-.99-3.21,0-.9.15-1.68.48-2.34.29-.66.73-1.16,1.32-1.51.55-.34,1.21-.52,1.94-.52s1.32.16,1.76.48c.48.32.84.8,1.06,1.44l1.32-.61c-.37-.84-.88-1.47-1.61-1.9-.7-.43-1.58-.64-2.64-.64-.99,0-1.87.23-2.64.69"/>
      <polygon class="cls-1" points="90.83 300.37 90.83 311.26 98.74 311.26 98.74 310.03 92.15 310.03 92.15 306.36 97.09 306.36 97.09 305.12 92.15 305.12 92.15 301.61 98.48 301.61 98.48 300.37 90.83 300.37"/>
      <path class="cls-1" d="M109.22,300.37l-4.25,10.89h1.39l1.17-3.02h4.91l1.17,3.02h1.39l-4.21-10.89h-1.58ZM109.48,303.1l.48-1.47h.04l.51,1.52,1.46,3.86h-3.96l1.47-3.91Z"/>
      <polygon class="cls-1" points="124.5 300.37 124.5 308.06 124.57 309.81 124.57 309.81 123.4 307.63 118.86 300.37 117.21 300.37 117.21 311.26 118.49 311.26 118.49 303.57 118.42 301.83 118.42 301.83 119.59 303.97 124.13 311.26 125.78 311.26 125.78 300.37 124.5 300.37"/>
      <path class="cls-1" d="M131.06,300.89c-.77.45-1.36,1.11-1.76,1.95-.4.85-.62,1.84-.62,2.97s.22,2.14.62,2.98c.4.84.99,1.49,1.76,1.95.73.45,1.65.69,2.67.69s1.91-.26,2.71-.78c.77-.52,1.32-1.25,1.65-2.17l-1.32-.49c-.22.73-.59,1.27-1.14,1.65-.55.37-1.17.56-1.91.56-1.14,0-2.05-.39-2.67-1.16-.66-.78-.99-1.85-.99-3.21,0-.9.15-1.68.44-2.34.33-.66.77-1.16,1.32-1.51.55-.34,1.21-.52,1.98-.52.7,0,1.28.16,1.76.48.44.32.81.8,1.03,1.44l1.32-.61c-.37-.84-.88-1.47-1.58-1.9-.73-.43-1.61-.64-2.64-.64s-1.91.23-2.64.69"/>
      <rect class="cls-1" x="140.66" y="300.37" width="1.32" height="10.89"/>
      <polygon class="cls-1" points="145.53 300.37 145.53 311.26 153.41 311.26 153.41 310.03 146.85 310.03 146.85 306.36 151.76 306.36 151.76 305.12 146.85 305.12 146.85 301.61 153.19 301.61 153.19 300.37 145.53 300.37"/>
      <polygon class="cls-1" points="163.34 300.37 163.34 308.06 163.41 309.81 163.41 309.81 162.24 307.63 157.69 300.37 156.04 300.37 156.04 311.26 157.33 311.26 157.33 303.57 157.25 301.83 157.25 301.83 158.43 303.97 162.97 311.26 164.62 311.26 164.62 300.37 163.34 300.37"/>
      <polygon class="cls-1" points="166.93 300.37 166.93 301.61 170.7 301.61 170.7 311.26 172.02 311.26 172.02 301.61 175.83 301.61 175.83 300.37 166.93 300.37"/>
      <path class="cls-1" d="M185.54,300.37l-4.25,10.89h1.39l1.17-3.02h4.91l1.17,3.02h1.39l-4.21-10.89h-1.58ZM185.79,303.1l.48-1.47h.04l.51,1.52,1.47,3.86h-3.96l1.47-3.91Z"/>
      <polygon class="cls-1" points="198.4 300.37 195.39 305.65 192.43 300.37 190.85 300.37 194.73 307.01 194.73 311.26 196.05 311.26 196.05 307.01 199.97 300.37 198.4 300.37"/>
      <path class="cls-1" d="M209.02,300.37v6.5c0,1.15-.26,1.98-.73,2.52-.48.53-1.21.8-2.23.8s-1.76-.27-2.23-.8c-.48-.54-.7-1.37-.7-2.52v-6.5h-1.32v6.83c0,1.38.37,2.44,1.1,3.15.7.71,1.76,1.07,3.15,1.07s2.45-.36,3.19-1.06c.73-.71,1.1-1.77,1.1-3.16v-6.83h-1.32Z"/>
      <path class="cls-1" d="M213.79,300.37v10.89h1.32v-4.52h2.6l2.97,4.52h1.58l-3.08-4.67c.77-.19,1.36-.56,1.76-1.09.44-.53.66-1.17.66-1.95,0-.98-.33-1.76-1.03-2.33-.66-.57-1.54-.86-2.67-.86h-4.1ZM215.11,301.61h2.78c1.54,0,2.31.65,2.31,1.95s-.77,1.95-2.31,1.95h-2.78v-3.89Z"/>
      <polygon class="cls-1" points="231.56 300.37 228.77 307.91 228.08 310.06 227.38 307.9 224.63 300.37 223.2 300.37 227.34 311.26 228.84 311.26 232.98 300.37 231.56 300.37"/>
      <polygon class="cls-1" points="235.22 300.37 235.22 311.26 243.1 311.26 243.1 310.03 236.54 310.03 236.54 306.36 241.45 306.36 241.45 305.12 236.54 305.12 236.54 301.61 242.84 301.61 242.84 300.37 235.22 300.37"/>
      <path class="cls-1" d="M245.73,300.37v10.89h3.52c1.72,0,3.08-.47,4.03-1.42.95-.95,1.47-2.29,1.47-4.03s-.51-3.07-1.47-4.02c-.95-.95-2.31-1.42-4.03-1.42h-3.52ZM247.05,301.61h2.35c1.25,0,2.2.37,2.89,1.11.7.74,1.06,1.77,1.06,3.09s-.37,2.35-1.06,3.1c-.7.74-1.65,1.11-2.89,1.11h-2.35v-8.41Z"/>
      <path class="cls-1" d="M260.17,300.37l-4.25,10.89h1.39l1.14-3.02h4.95l1.14,3.02h1.43l-4.25-10.89h-1.54ZM260.43,303.1l.48-1.47h.04l.51,1.52,1.47,3.86h-3.99l1.5-3.91Z"/>
      <path class="cls-1" d="M41.04,221.12l-3.92,28.82h.99c2.78-3.13,6.01-4.68,9.75-4.68,2.93,0,5.86.89,8.79,2.66,2.97,1.77,5.35,4.01,7.25,6.7,1.1,1.47,1.94,3.23,2.53,5.28.59,2.05.88,4.14.88,6.29,0,3.18-.62,6.16-1.83,8.95-1.25,2.78-3.01,4.91-5.31,6.38-2.78,1.78-6.01,2.66-9.75,2.66-2.27,0-4.51-.35-6.74-1.06-2.23-.7-4.29-1.73-6.12-3.07-1.87-1.41-3.48-3.12-4.73-5.14-1.25-2.02-2.05-4.19-2.42-6.52h-3.96c.37,3.36,1.5,6.43,3.41,9.18,2.01,2.94,4.58,5.17,7.66,6.7,3.08,1.53,6.38,2.29,9.86,2.29,4.84,0,9.31-1.41,13.41-4.22,3.01-2.08,5.39-4.8,7.11-8.17,1.76-3.36,2.64-6.88,2.64-10.56,0-4.34-1.25-8.23-3.7-11.65-1.76-2.51-4.21-4.51-7.33-6.01-3.11-1.5-6.34-2.25-9.64-2.25-2.2,0-4.29.37-6.3,1.1-1.98.73-3.7,1.86-5.17,3.4l3.11-23.13h16.78c1.72,0,2.97.03,3.77.09.81.07,1.72.31,2.71.74,1.03.43,1.98,1.13,2.9,2.11h.44l-3.92-6.88h-23.16Z"/>
      <path class="cls-1" d="M105.41,221.12v.46c1.03,0,1.76.15,2.2.46.4.31.66.95.73,1.93v4.77c0,3.67.92,6.94,2.75,9.82,1.83,2.88,4.32,4.8,7.44,5.79-1.8.43-3.04.76-3.77,1.01-4.29,1.53-7.66,4.14-10.19,7.85-2.49,3.7-3.77,7.76-3.77,12.16,0,2.63.44,5.05,1.28,7.25,1.54,4.22,4.14,7.61,7.8,10.15,3.7,2.54,7.73,3.81,12.13,3.81,2.38,0,4.8-.43,7.25-1.29,3.74-1.34,6.85-3.56,9.31-6.65,2.49-3.09,3.96-6.53,4.47-10.32h-3.3c-.15,3.67-1.17,6.96-3.08,9.87-1.94,2.91-4.51,4.94-7.69,6.1-1.65.61-3.44.92-5.39.92-3.81,0-7.33-1.28-10.63-3.81-3.26-2.54-5.68-5.92-7.18-10.14-.99-2.57-1.5-5.26-1.5-8.08,0-3.85.99-7.31,2.93-10.37,1.9-3.06,4.54-5.2,7.91-6.43,1.36-.49,2.75-.81,4.21-.96,1.47-.15,3.19-.23,5.17-.23h4.29v-1.1h-3.55c-3.85,0-7-1.51-9.38-4.54-2.38-3.03-3.55-6.81-3.55-11.33v-4.32c0-.73.11-1.21.4-1.43.26-.21.88-.32,1.87-.32h6.96c2.71.06,4.8.35,6.27.87,1.47.52,2.64,1.5,3.52,2.94.92,1.44,1.58,3.59,2.09,6.47h.44l-1.83-11.29h-26.6Z"/>
      <path class="cls-1" d="M143.48,221.12v.46c1.25,0,2.05.21,2.45.64.37.43.55,1.25.48,2.48v57.83c0,.98-.22,1.62-.66,1.93-.48.31-1.21.46-2.27.46v.46h27.92l1.76-11.28h-.37c-.51,2.88-1.21,5.03-2.13,6.47-.92,1.44-2.12,2.42-3.59,2.94-1.47.52-3.55.81-6.23.87h-8.1c-1.03,0-1.69-.11-1.98-.32-.26-.22-.4-.72-.4-1.52v-57.83c-.04-1.22.11-2.05.51-2.48.4-.43,1.21-.64,2.42-.64v-.46h-9.82Z"/>
      <path class="cls-1" d="M232.62,221.12l-27.44,52.96-24.8-52.96h-6.3v.46c.92-.06,1.58.12,2.05.55.44.43.92,1.16,1.43,2.2v42.04c0,4.4.26,8.17.77,11.29.51,3.12,1.72,5.69,3.63,7.71h5.42c-3.19-2.51-5.42-5.69-6.67-9.54-1.25-3.85-1.94-8.26-2.05-13.22v-35.98l27.7,58.74h7.73v-.46c-1.54-.06-2.78-.55-3.74-1.47-.92-.92-1.8-2.2-2.53-3.85-.33-.92-.55-1.9-.55-2.94,0-2.2.51-4.42,1.5-6.65.95-2.23,2.42-5.25,4.4-9.04l19.46-37.54v59.11c0,.98-.22,1.62-.7,1.93-.44.31-1.21.46-2.23.46v.46h9.82v-.46c-1.06,0-1.79-.15-2.2-.46-.44-.3-.7-.95-.73-1.93v-58.56c.04-.98.29-1.62.73-1.93.4-.31,1.14-.46,2.2-.46v-.46h-6.89Z"/>
      <path class="cls-1" d="M166.3,109.15c-.37,0-.66.15-.92.39-.48.5-.44,1.31.07,1.79.04.07.11.12.18.17.07.04.15.08.22.11.07.03.15.05.22.07.18.03.33.03.51,0,.07-.02.15-.04.22-.07.07-.03.15-.07.22-.11.07-.05.15-.1.22-.17.48-.5.48-1.3,0-1.79h0s-.07-.04-.07-.04c-.22-.23-.55-.35-.88-.35h0Z"/>
      <path class="cls-1" d="M143.51,136.04c-.07.03-.15.07-.22.12-.15.1-.26.21-.33.36-.07.07-.11.14-.11.21-.04.08-.07.16-.11.25v.24c0,.7.59,1.27,1.28,1.27s1.25-.57,1.25-1.27c0-.08,0-.17-.04-.25,0-.08-.04-.15-.07-.23-.04-.15-.15-.29-.26-.41-.26-.24-.59-.37-.92-.37-.15,0-.33.03-.48.09"/>
      <path class="cls-1" d="M201.77,134.26c-.04.25-.07.49-.11.74-.07.37.04.7.22.97.22.27.51.45.84.5.33.06.66-.03.92-.23.29-.2.48-.49.51-.83.04-.27.11-.53.15-.79.07-.69-.4-1.33-1.1-1.44-.04,0-.11-.01-.18-.01-.62,0-1.17.45-1.25,1.09"/>
      <path class="cls-1" d="M171.14,125.08c0,2.89,2.38,5.24,5.24,5.24s5.24-2.34,5.24-5.24-2.34-5.24-5.24-5.24-5.24,2.35-5.24,5.24M173.19,125.08c0-1.76,1.43-3.19,3.19-3.19s3.19,1.43,3.19,3.19-1.43,3.19-3.19,3.19-3.19-1.43-3.19-3.19"/>
      <path class="cls-1" d="M147.76,125.08c0,2.05,1.65,3.71,3.7,3.71s3.7-1.66,3.7-3.71-1.65-3.7-3.7-3.7-3.7,1.66-3.7,3.7M149.6,125.08c0-1.03.84-1.86,1.87-1.86s1.87.84,1.87,1.86-.84,1.86-1.87,1.86-1.87-.84-1.87-1.86"/>
    </g>
  </g>
</svg>